<svg xmlns="http://www.w3.org/2000/svg" xmlns:xlink="http://www.w3.org/1999/xlink" width="48" zoomAndPan="magnify" viewBox="0 0 36 36.000001" height="48" preserveAspectRatio="xMidYMid meet" version="1.0"><defs><g/><clipPath id="cb9590eed5"><path d="M 0.488281 1 L 29 1 L 29 35.027344 L 0.488281 35.027344 Z M 0.488281 1 " clip-rule="nonzero"/></clipPath><clipPath id="bb95370c14"><path d="M 1 0.402344 L 28 0.402344 L 28 32 L 1 32 Z M 1 0.402344 " clip-rule="nonzero"/></clipPath><clipPath id="9965265263"><rect x="0" width="29" y="0" height="35"/></clipPath><clipPath id="95fabcf569"><path d="M 28.859375 2.597656 L 34.699219 2.597656 L 34.699219 31.789062 L 28.859375 31.789062 Z M 28.859375 2.597656 " clip-rule="nonzero"/></clipPath></defs><g clip-path="url(#cb9590eed5)"><g transform="matrix(1, 0, 0, 1, 0.000000000000000111, 1)"><g clip-path="url(#9965265263)"><g clip-path="url(#bb95370c14)"><g fill="#ff6d4d" fill-opacity="1"><g transform="translate(1.888744, 23.311937)"><g><path d="M 25.28125 -20.03125 C 25.28125 -18.5 24.785156 -16.898438 23.796875 -15.234375 C 22.804688 -13.566406 21.4375 -12.113281 19.6875 -10.875 C 17.9375 -9.632812 16.128906 -8.859375 14.265625 -8.546875 C 13.191406 -6.378906 12.421875 -4.863281 11.953125 -4 L 11.390625 -3.109375 C 14.867188 -2.242188 17.75 -0.9375 20.03125 0.8125 C 21.195312 1.707031 21.984375 2.804688 22.390625 4.109375 C 22.597656 4.773438 22.703125 5.34375 22.703125 5.8125 C 22.703125 6.289062 22.609375 6.691406 22.421875 7.015625 C 22.234375 7.347656 22.015625 7.570312 21.765625 7.6875 C 21.523438 7.8125 21.351562 7.875 21.25 7.875 C 21.144531 7.875 21.09375 7.832031 21.09375 7.75 C 21.09375 7.664062 21.191406 7.40625 21.390625 6.96875 C 21.597656 6.539062 21.703125 6.035156 21.703125 5.453125 C 21.703125 4.878906 21.578125 4.238281 21.328125 3.53125 C 21.078125 2.832031 20.617188 2.1875 19.953125 1.59375 C 19.285156 1.007812 18.359375 0.457031 17.171875 -0.0625 C 15.992188 -0.582031 14.96875 -0.953125 14.09375 -1.171875 C 13.226562 -1.390625 12.0625 -1.640625 10.59375 -1.921875 C 9.101562 0.171875 7.550781 1.601562 5.9375 2.375 C 4.96875 2.84375 4.109375 3.078125 3.359375 3.078125 C 2.617188 3.078125 1.957031 2.929688 1.375 2.640625 C 0.375 2.140625 -0.125 1.390625 -0.125 0.390625 C -0.125 -0.609375 0.53125 -1.484375 1.84375 -2.234375 C 3.34375 -3.117188 5.363281 -3.5625 7.90625 -3.5625 C 8.820312 -3.5625 9.648438 -3.488281 10.390625 -3.34375 C 11.179688 -4.570312 12.101562 -6.269531 13.15625 -8.4375 C 13.050781 -8.4375 12.957031 -8.4375 12.875 -8.4375 C 11.757812 -8.4375 10.726562 -8.617188 9.78125 -8.984375 C 8.832031 -9.359375 8.078125 -9.859375 7.515625 -10.484375 C 6.773438 -11.316406 6.40625 -12.25 6.40625 -13.28125 C 6.40625 -13.832031 6.539062 -14.421875 6.8125 -15.046875 C 7.09375 -15.679688 7.703125 -16.320312 8.640625 -16.96875 C 9.578125 -17.625 10.765625 -18.117188 12.203125 -18.453125 C 12.429688 -18.503906 12.625 -18.53125 12.78125 -18.53125 C 12.945312 -18.53125 13.046875 -18.484375 13.078125 -18.390625 C 13.109375 -18.304688 13.035156 -18.226562 12.859375 -18.15625 C 12.691406 -18.09375 12.492188 -18.039062 12.265625 -18 C 11.503906 -17.914062 10.800781 -17.660156 10.15625 -17.234375 C 9.03125 -16.515625 8.25 -15.410156 7.8125 -13.921875 C 7.707031 -13.566406 7.65625 -13.226562 7.65625 -12.90625 C 7.65625 -12.582031 7.710938 -12.191406 7.828125 -11.734375 C 7.953125 -11.273438 8.21875 -10.800781 8.625 -10.3125 C 9.03125 -9.832031 9.578125 -9.492188 10.265625 -9.296875 C 10.960938 -9.109375 11.570312 -9.015625 12.09375 -9.015625 C 12.613281 -9.015625 13.09375 -9.039062 13.53125 -9.09375 L 15.765625 -14.734375 C 17.316406 -18.703125 19.160156 -21.144531 21.296875 -22.0625 C 21.859375 -22.289062 22.40625 -22.40625 22.9375 -22.40625 C 23.476562 -22.40625 23.988281 -22.234375 24.46875 -21.890625 C 24.957031 -21.546875 25.21875 -21.128906 25.25 -20.640625 C 25.269531 -20.429688 25.28125 -20.226562 25.28125 -20.03125 Z M 24.171875 -20 C 24.171875 -20.675781 23.863281 -21.015625 23.25 -21.015625 C 22.351562 -21.015625 21.265625 -20.226562 19.984375 -18.65625 C 18.984375 -17.414062 18.019531 -15.910156 17.09375 -14.140625 C 16.175781 -12.378906 15.359375 -10.75 14.640625 -9.25 C 17.078125 -9.789062 19.273438 -11.128906 21.234375 -13.265625 C 23.191406 -15.398438 24.171875 -17.644531 24.171875 -20 Z M 9.578125 -2.078125 C 8.710938 -2.273438 7.820312 -2.375 6.90625 -2.375 C 6 -2.375 5.0625 -2.242188 4.09375 -1.984375 C 2.070312 -1.453125 0.882812 -0.703125 0.53125 0.265625 C 0.457031 0.441406 0.421875 0.609375 0.421875 0.765625 C 0.421875 1.222656 0.671875 1.59375 1.171875 1.875 C 1.671875 2.164062 2.222656 2.3125 2.828125 2.3125 C 3.648438 2.3125 4.546875 2.085938 5.515625 1.640625 C 6.972656 0.929688 8.328125 -0.304688 9.578125 -2.078125 Z M 9.578125 -2.078125 "/></g></g></g></g></g></g></g><g clip-path="url(#95fabcf569)"><path fill="#ff6d4d" d="M 32.902344 14.621094 C 32.902344 14.15625 33.015625 13.699219 33.230469 13.289062 L 34.230469 12.054688 C 34.667969 11.523438 34.890625 10.84375 34.867188 10.15625 L 34.226562 2.9375 C 34.222656 2.753906 34.070312 2.605469 33.894531 2.605469 C 33.71875 2.605469 33.578125 2.753906 33.585938 2.9375 L 33.894531 9.351562 C 33.90625 9.605469 33.722656 9.8125 33.488281 9.8125 C 33.253906 9.8125 33.0625 9.605469 33.058594 9.351562 L 32.875 2.9375 C 32.875 2.753906 32.726562 2.605469 32.550781 2.605469 C 32.375 2.605469 32.230469 2.753906 32.230469 2.9375 L 32.296875 9.351562 C 32.300781 9.605469 32.113281 9.8125 31.878906 9.8125 C 31.644531 9.8125 31.457031 9.605469 31.460938 9.351562 L 31.527344 2.9375 C 31.523438 2.753906 31.382812 2.605469 31.203125 2.605469 C 31.027344 2.605469 30.882812 2.753906 30.878906 2.9375 L 30.695312 9.351562 C 30.691406 9.605469 30.5 9.8125 30.265625 9.8125 C 30.03125 9.8125 29.847656 9.605469 29.855469 9.351562 L 30.167969 2.9375 C 30.175781 2.753906 30.035156 2.605469 29.859375 2.605469 C 29.683594 2.605469 29.53125 2.753906 29.527344 2.9375 L 28.886719 10.15625 C 28.859375 10.84375 29.085938 11.519531 29.523438 12.054688 L 30.523438 13.289062 C 30.742188 13.699219 30.851562 14.15625 30.851562 14.621094 C 30.851562 14.621094 31.320312 21.511719 30.433594 28.167969 C 30.433594 28.167969 29.753906 31.507812 31.875 31.507812 C 33.996094 31.507812 33.3125 28.167969 33.3125 28.167969 C 32.433594 21.511719 32.902344 14.621094 32.902344 14.621094 Z M 32.902344 14.621094 " fill-opacity="1" fill-rule="nonzero"/></g></svg>